<?xml version="1.0" standalone="no"?>
<!DOCTYPE svg PUBLIC "-//W3C//DTD SVG 20010904//EN"
 "http://www.w3.org/TR/2001/REC-SVG-20010904/DTD/svg10.dtd">
<svg version="1.0" xmlns="http://www.w3.org/2000/svg"
 width="128.000000pt" height="128.000000pt" viewBox="0 0 128.000000 128.000000"
 preserveAspectRatio="xMidYMid meet">

<g transform="translate(0.000000,128.000000) scale(0.100000,-0.100000)"
fill="#000000" stroke="none">
<path d="M622 1227 c-28 -30 -28 -64 0 -94 22 -23 22 -25 6 -53 -13 -24 -14
-31 -3 -40 10 -8 18 -4 34 16 26 33 26 54 1 87 -24 30 -25 45 -4 68 15 17 12
39 -5 39 -4 0 -17 -10 -29 -23z"/>
<path d="M442 1187 c-28 -30 -28 -64 0 -94 22 -23 22 -25 6 -53 -13 -24 -14
-31 -3 -40 10 -8 18 -4 34 16 26 33 26 54 1 87 -24 30 -25 45 -4 68 15 17 12
39 -5 39 -4 0 -17 -10 -29 -23z"/>
<path d="M802 1187 c-28 -30 -28 -64 0 -94 22 -23 22 -25 6 -53 -13 -24 -14
-31 -3 -40 10 -8 18 -4 34 16 26 33 26 54 1 87 -24 30 -25 45 -4 68 15 17 12
39 -5 39 -4 0 -17 -10 -29 -23z"/>
<path d="M286 874 c-96 -72 -137 -126 -156 -204 -10 -42 -16 -49 -38 -52 -23
-3 -27 -8 -30 -39 -2 -27 -9 -38 -23 -42 -18 -5 -19 -16 -19 -217 0 -201 1
-212 19 -217 14 -4 21 -15 23 -42 l3 -36 575 0 575 0 3 36 c2 27 9 38 23 42
18 5 19 16 19 217 0 201 -1 212 -19 217 -14 4 -21 15 -23 42 -3 31 -7 36 -30
39 -22 3 -28 10 -38 52 -6 27 -24 69 -40 94 -32 50 -196 180 -217 172 -7 -3
-38 -24 -68 -47 l-55 -41 -55 41 c-30 23 -61 44 -68 47 -7 2 -41 -16 -75 -42
l-62 -46 -55 41 c-30 23 -61 44 -68 47 -7 2 -53 -25 -101 -62z m122 -61 c18
-42 19 -50 7 -74 -8 -14 -19 -47 -26 -72 l-11 -47 -109 0 c-63 0 -109 4 -109
10 0 5 9 34 21 64 15 41 35 68 76 106 31 27 58 49 59 47 1 -1 -6 -27 -16 -57
-26 -73 -26 -110 -1 -110 14 0 20 10 25 41 8 47 45 139 56 139 4 0 17 -21 28
-47z m260 -2 c12 -26 24 -67 28 -90 5 -31 11 -41 25 -41 25 0 25 37 -1 110
-10 30 -18 56 -16 57 1 1 25 -18 53 -42 49 -43 84 -99 97 -157 l6 -28 -220 0
c-121 0 -220 4 -220 9 0 22 33 98 55 127 13 17 42 46 64 63 l39 31 -19 -61
c-25 -79 -25 -109 0 -109 14 0 20 10 25 41 8 47 45 139 56 139 4 0 17 -22 28
-49z m260 0 c12 -26 24 -67 28 -90 5 -31 11 -41 25 -41 25 0 25 37 -1 110 -10
30 -17 56 -16 57 1 2 28 -20 59 -47 41 -38 61 -65 76 -106 12 -30 21 -59 21
-64 0 -6 -46 -10 -109 -10 l-109 0 -11 47 c-7 25 -18 58 -26 72 -12 24 -11 32
7 74 11 26 24 47 28 47 4 0 17 -22 28 -49z m-462 2 c-4 -4 -11 -1 -16 7 -16
25 -11 35 7 17 9 -9 13 -20 9 -24z m368 13 c-6 -16 -24 -23 -24 -8 0 10 22 33
27 28 2 -2 1 -11 -3 -20z m346 -266 c0 -20 -7 -20 -540 -20 -533 0 -540 0
-540 20 0 20 7 20 540 20 533 0 540 0 540 -20z m40 -90 l0 -30 -60 0 c-53 0
-60 -2 -60 -20 0 -18 7 -20 60 -20 l60 0 0 -30 0 -30 -422 0 c-342 0 -435 3
-488 15 -115 27 -130 34 -130 61 0 21 -4 24 -41 24 -50 0 -79 15 -79 40 0 20
10 20 580 20 l580 0 0 -30z m0 -200 l0 -30 -60 0 c-53 0 -60 -2 -60 -20 0 -18
7 -20 60 -20 l60 0 0 -30 0 -30 -422 0 c-342 0 -435 3 -488 15 -115 27 -130
34 -130 61 0 21 -4 24 -41 24 -50 0 -79 15 -79 40 0 20 10 20 580 20 l580 0 0
-30z m-40 -190 c0 -20 -7 -20 -540 -20 -533 0 -540 0 -540 20 0 20 7 20 540
20 533 0 540 0 540 -20z"/>
</g>
</svg>
